<svg width="14" height="8" viewBox="0 0 14 8" fill="none" xmlns="http://www.w3.org/2000/svg">
<path d="M3.4375 7.56246V5.31246H0.4375V0.4375H1.56246V4.1875H3.4375V0.4375H4.56246V4.1875H6.06246V5.31246H4.56246V7.56246H3.4375ZM13.5625 3.4375V6.20671C13.5625 6.57954 13.4297 6.89871 13.1642 7.16421C12.8987 7.42971 12.5795 7.56246 12.2067 7.56246H8.54326C8.17042 7.56246 7.85125 7.42971 7.58575 7.16421C7.32025 6.89871 7.1875 6.57954 7.1875 6.20671V1.79326C7.1875 1.42042 7.32025 1.10125 7.58575 0.835751C7.85125 0.570251 8.17042 0.4375 8.54326 0.4375H12.2644C12.5952 0.4375 12.8846 0.544707 13.1327 0.759119C13.3807 0.973532 13.524 1.24131 13.5625 1.56246H8.54326C8.47594 1.56246 8.42065 1.5841 8.37738 1.62738C8.3341 1.67065 8.31246 1.72594 8.31246 1.79326V6.20671C8.31246 6.27402 8.3341 6.32931 8.37738 6.37259C8.42065 6.41586 8.47594 6.4375 8.54326 6.4375H12.2067C12.274 6.4375 12.3293 6.41586 12.3726 6.37259C12.4159 6.32931 12.4375 6.27402 12.4375 6.20671V4.56246H10.5625V3.4375H13.5625Z" fill="black"/>
</svg>
