<svg width="14" height="8" viewBox="0 0 14 8" fill="none" xmlns="http://www.w3.org/2000/svg">
<path d="M0.4375 7.56246V6.4375H3.95671C4.02402 6.4375 4.07931 6.41586 4.12259 6.37259C4.16586 6.32931 4.1875 6.27402 4.1875 6.20671V4.79326C4.1875 4.72594 4.16586 4.67065 4.12259 4.62738C4.07931 4.5841 4.02402 4.56246 3.95671 4.56246H0.4375V0.4375H5.31246V1.56246H1.56246V3.4375H3.95671C4.33074 3.4375 4.65021 3.56995 4.91511 3.83485C5.18001 4.09975 5.31246 4.41922 5.31246 4.79326V6.20671C5.31246 6.58074 5.18001 6.90021 4.91511 7.16511C4.65021 7.43001 4.33074 7.56246 3.95671 7.56246H0.4375ZM13.5625 3.4375V6.20671C13.5625 6.58074 13.43 6.90021 13.1651 7.16511C12.9002 7.43001 12.5807 7.56246 12.2067 7.56246H8.54326C8.16922 7.56246 7.84975 7.43001 7.58485 7.16511C7.31995 6.90021 7.1875 6.58074 7.1875 6.20671V1.79326C7.1875 1.41922 7.31995 1.09975 7.58485 0.83485C7.84975 0.56995 8.16922 0.4375 8.54326 0.4375H12.2644C12.5952 0.4375 12.8846 0.544707 13.1327 0.759119C13.3807 0.973532 13.524 1.24131 13.5625 1.56246H8.54326C8.47594 1.56246 8.42065 1.5841 8.37738 1.62738C8.3341 1.67065 8.31246 1.72594 8.31246 1.79326V6.20671C8.31246 6.27402 8.3341 6.32931 8.37738 6.37259C8.42065 6.41586 8.47594 6.4375 8.54326 6.4375H12.2067C12.274 6.4375 12.3293 6.41586 12.3726 6.37259C12.4159 6.32931 12.4375 6.27402 12.4375 6.20671V4.56246H10.5625V3.4375H13.5625Z" fill="black"/>
</svg>
