<svg width="14" height="15" viewBox="0 0 14 15" fill="none" xmlns="http://www.w3.org/2000/svg">
<path d="M1 4.5V3C1 2.60218 1.15804 2.22064 1.43934 1.93934C1.72064 1.65804 2.10218 1.5 2.5 1.5H4M1 10.5V12C1 12.3978 1.15804 12.7794 1.43934 13.0607C1.72064 13.342 2.10218 13.5 2.5 13.5H4M10 1.5H11.5C11.8978 1.5 12.2794 1.65804 12.5607 1.93934C12.842 2.22064 13 2.60218 13 3V4.5M10 13.5H11.5C11.8978 13.5 12.2794 13.342 12.5607 13.0607C12.842 12.7794 13 12.3978 13 12V10.5" stroke="black" stroke-width="1.5" stroke-linecap="round" stroke-linejoin="round"/>
</svg>
