<svg width="14" height="16" viewBox="0 0 14 16" fill="none" xmlns="http://www.w3.org/2000/svg">
<path d="M1.98077 15.1251C1.60193 15.1251 1.28125 14.9938 1.01875 14.7313C0.75625 14.4688 0.625 14.1481 0.625 13.7693V3.73088C0.625 3.35203 0.75625 3.03136 1.01875 2.76886C1.28125 2.50636 1.60193 2.37511 1.98077 2.37511H3.01924V0.788574H4.17306V2.37511H9.85574V0.788574H10.9807V2.37511H12.0192C12.398 2.37511 12.7187 2.50636 12.9812 2.76886C13.2437 3.03136 13.375 3.35203 13.375 3.73088V13.7693C13.375 14.1481 13.2437 14.4688 12.9812 14.7313C12.7187 14.9938 12.398 15.1251 12.0192 15.1251H1.98077ZM1.98077 14.0001H12.0192C12.0769 14.0001 12.1298 13.976 12.1779 13.928C12.2259 13.8799 12.25 13.827 12.25 13.7693V6.73088H1.74998V13.7693C1.74998 13.827 1.77402 13.8799 1.82209 13.928C1.87018 13.976 1.92308 14.0001 1.98077 14.0001ZM1.74998 5.6059H12.25V3.73088C12.25 3.67318 12.2259 3.62029 12.1779 3.5722C12.1298 3.52412 12.0769 3.50009 12.0192 3.50009H1.98077C1.92308 3.50009 1.87018 3.52412 1.82209 3.5722C1.77402 3.62029 1.74998 3.67318 1.74998 3.73088V5.6059ZM6.99998 9.55778C6.81633 9.55778 6.65984 9.49312 6.53052 9.36379C6.40119 9.23447 6.33653 9.07798 6.33653 8.89433C6.33653 8.71068 6.40119 8.55419 6.53052 8.42487C6.65984 8.29554 6.81633 8.23088 6.99998 8.23088C7.18363 8.23088 7.34012 8.29554 7.46944 8.42487C7.59877 8.55419 7.66343 8.71068 7.66343 8.89433C7.66343 9.07798 7.59877 9.23447 7.46944 9.36379C7.34012 9.49312 7.18363 9.55778 6.99998 9.55778ZM3.99998 9.55778C3.81633 9.55778 3.65984 9.49312 3.53052 9.36379C3.40119 9.23447 3.33653 9.07798 3.33653 8.89433C3.33653 8.71068 3.40119 8.55419 3.53052 8.42487C3.65984 8.29554 3.81633 8.23088 3.99998 8.23088C4.18363 8.23088 4.34012 8.29554 4.46944 8.42487C4.59877 8.55419 4.66343 8.71068 4.66343 8.89433C4.66343 9.07798 4.59877 9.23447 4.46944 9.36379C4.34012 9.49312 4.18363 9.55778 3.99998 9.55778ZM9.99998 9.55778C9.81633 9.55778 9.65984 9.49312 9.53052 9.36379C9.40119 9.23447 9.33653 9.07798 9.33653 8.89433C9.33653 8.71068 9.40119 8.55419 9.53052 8.42487C9.65984 8.29554 9.81633 8.23088 9.99998 8.23088C10.1836 8.23088 10.3401 8.29554 10.4694 8.42487C10.5988 8.55419 10.6634 8.71068 10.6634 8.89433C10.6634 9.07798 10.5988 9.23447 10.4694 9.36379C10.3401 9.49312 10.1836 9.55778 9.99998 9.55778ZM6.99998 12.5001C6.81633 12.5001 6.65984 12.4354 6.53052 12.3061C6.40119 12.1768 6.33653 12.0203 6.33653 11.8366C6.33653 11.653 6.40119 11.4965 6.53052 11.3672C6.65984 11.2378 6.81633 11.1732 6.99998 11.1732C7.18363 11.1732 7.34012 11.2378 7.46944 11.3672C7.59877 11.4965 7.66343 11.653 7.66343 11.8366C7.66343 12.0203 7.59877 12.1768 7.46944 12.3061C7.34012 12.4354 7.18363 12.5001 6.99998 12.5001ZM3.99998 12.5001C3.81633 12.5001 3.65984 12.4354 3.53052 12.3061C3.40119 12.1768 3.33653 12.0203 3.33653 11.8366C3.33653 11.653 3.40119 11.4965 3.53052 11.3672C3.65984 11.2378 3.81633 11.1732 3.99998 11.1732C4.18363 11.1732 4.34012 11.2378 4.46944 11.3672C4.59877 11.4965 4.66343 11.653 4.66343 11.8366C4.66343 12.0203 4.59877 12.1768 4.46944 12.3061C4.34012 12.4354 4.18363 12.5001 3.99998 12.5001ZM9.99998 12.5001C9.81633 12.5001 9.65984 12.4354 9.53052 12.3061C9.40119 12.1768 9.33653 12.0203 9.33653 11.8366C9.33653 11.653 9.40119 11.4965 9.53052 11.3672C9.65984 11.2378 9.81633 11.1732 9.99998 11.1732C10.1836 11.1732 10.3401 11.2378 10.4694 11.3672C10.5988 11.4965 10.6634 11.653 10.6634 11.8366C10.6634 12.0203 10.5988 12.1768 10.4694 12.3061C10.3401 12.4354 10.1836 12.5001 9.99998 12.5001Z" fill="black"/>
</svg>
