<svg width="12" height="12" viewBox="0 0 12 12" fill="none" xmlns="http://www.w3.org/2000/svg">
<path d="M5.53832 11.625C5.34986 11.625 5.19217 11.5615 5.06524 11.4346C4.93832 11.3077 4.87486 11.15 4.87486 10.9615V6.62016L0.676318 1.28653C0.532093 1.09422 0.51118 0.89422 0.61358 0.686532C0.71598 0.478845 0.888811 0.375 1.13207 0.375H10.8676C11.1109 0.375 11.2837 0.478845 11.3861 0.686532C11.4885 0.89422 11.4676 1.09422 11.3234 1.28653L7.12482 6.62016V10.9615C7.12482 11.15 7.06136 11.3077 6.93443 11.4346C6.80751 11.5615 6.64981 11.625 6.46135 11.625H5.53832ZM5.99984 6.22498L9.71234 1.49998H2.28734L5.99984 6.22498Z" fill="black"/>
</svg>
