<svg width="17" height="16" viewBox="0 0 17 16" fill="none" xmlns="http://www.w3.org/2000/svg">
<path d="M12.5 3.99998V4.00748M6.875 3.06248L5.75 2.49998M5.75 2.49998L1.25 4.74998V14.5L5.75 12.25M5.75 2.49998V12.25M5.75 12.25L10.25 14.5M10.25 14.5L14.75 12.25V10.75M10.25 14.5V10.75M12.5 9.24998L9.875 5.49998C9.6223 5.04325 9.49314 4.5285 9.50028 4.00657C9.50742 3.48465 9.65061 2.97362 9.91571 2.52398C10.1808 2.07434 10.5586 1.70164 11.0119 1.44272C11.4651 1.1838 11.978 1.04761 12.5 1.04761C13.022 1.04761 13.5349 1.1838 13.9881 1.44272C14.4414 1.70164 14.8192 2.07434 15.0843 2.52398C15.3494 2.97362 15.4926 3.48465 15.4997 4.00657C15.5069 4.5285 15.3777 5.04325 15.125 5.49998L12.5 9.24998Z" stroke="black" stroke-width="1.5" stroke-linecap="round" stroke-linejoin="round"/>
</svg>
