<svg width="10" height="16" viewBox="0 0 10 16" fill="none" xmlns="http://www.w3.org/2000/svg">
<path d="M1.48077 15.8749C1.10192 15.8749 0.78125 15.7437 0.51875 15.4812C0.25625 15.2187 0.125 14.898 0.125 14.5192V1.48078C0.125 1.10193 0.25625 0.78125 0.51875 0.51875C0.78125 0.25625 1.10192 0.125 1.48077 0.125H8.51919C8.89804 0.125 9.21871 0.25625 9.48121 0.51875C9.74371 0.78125 9.87496 1.10193 9.87496 1.48078V14.5192C9.87496 14.898 9.74371 15.2187 9.48121 15.4812C9.21871 15.7437 8.89804 15.875 8.51919 15.875H1.48077V15.8749ZM1.24998 12.3269V14.5192C1.24998 14.5769 1.27402 14.6298 1.32209 14.6779C1.37018 14.726 1.42307 14.75 1.48077 14.75H8.51919C8.57689 14.75 8.62978 14.726 8.67787 14.6779C8.72594 14.6298 8.74998 14.5769 8.74998 14.5192V12.3269H1.24998ZM4.99998 14.2019C5.18363 14.2019 5.34012 14.1373 5.46944 14.0079C5.59877 13.8786 5.66343 13.7221 5.66343 13.5385C5.66343 13.3548 5.59877 13.1983 5.46944 13.069C5.34012 12.9397 5.18363 12.875 4.99998 12.875C4.81633 12.875 4.65984 12.9396 4.53052 13.069C4.40119 13.1983 4.33653 13.3548 4.33653 13.5384C4.33653 13.7221 4.40119 13.8786 4.53052 14.0079C4.65984 14.1372 4.81633 14.2019 4.99998 14.2019V14.2019ZM1.24998 11.2019H8.74998V3.31246H1.24998V11.2019ZM1.24998 2.1875H8.74998V1.48078C8.74998 1.42308 8.72594 1.37018 8.67787 1.32209C8.62978 1.27402 8.57689 1.24998 8.51919 1.24998H1.48077C1.42307 1.24998 1.37018 1.27402 1.32209 1.32209C1.27402 1.37018 1.24998 1.42308 1.24998 1.48078V2.1875Z" fill="black"/>
</svg>
