<svg width="111" height="32" viewBox="0 0 111 32" fill="none" xmlns="http://www.w3.org/2000/svg">
<path d="M40.7308 10.9265L41.1982 16.5202L40.9645 15.7744C41.4942 14.5935 42.2421 13.5835 43.2081 12.7444C44.174 11.9054 45.1712 11.2683 46.1995 10.8333C47.2589 10.3671 48.147 10.1341 48.8637 10.1341L48.63 14.8887C47.1343 14.7955 45.8255 15.0752 44.7038 15.7278C43.6131 16.3804 42.7562 17.2505 42.133 18.3382C41.5098 19.4258 41.1982 20.5912 41.1982 21.8342V30.4578H36.4307V10.9265H40.7308Z" fill="#2D2D2D"/>
<path d="M54.3236 10.9265H59.1379V30.4578H54.3236V10.9265ZM54.0431 3.93437C54.0431 3.18854 54.3392 2.56702 54.9312 2.0698C55.5233 1.57258 56.162 1.32397 56.8476 1.32397C57.5643 1.32397 58.203 1.57258 58.7639 2.0698C59.3248 2.56702 59.6053 3.18854 59.6053 3.93437C59.6053 4.6802 59.3248 5.30172 58.7639 5.79893C58.203 6.26508 57.5643 6.49815 56.8476 6.49815C56.162 6.49815 55.5233 6.26508 54.9312 5.79893C54.3392 5.30172 54.0431 4.6802 54.0431 3.93437Z" fill="#2D2D2D"/>
<path d="M64.7825 20.4824C64.7825 18.5246 65.2499 16.7688 66.1847 15.215C67.1196 13.6301 68.4127 12.3871 70.0642 11.4859C71.7157 10.5847 73.6009 10.1341 75.7198 10.1341C77.8699 10.1341 79.7551 10.5847 81.3755 11.4859C82.9958 12.3871 84.2422 13.6301 85.1147 15.215C86.0184 16.7688 86.4702 18.5246 86.4702 20.4824C86.4702 22.4402 86.0184 24.2115 85.1147 25.7964C84.2422 27.3813 82.9958 28.6399 81.3755 29.5722C79.7551 30.4734 77.8543 30.924 75.6731 30.924C73.5854 30.924 71.7157 30.5045 70.0642 29.6654C68.4439 28.8263 67.1507 27.6299 66.1847 26.0761C65.2499 24.4912 64.7825 22.6267 64.7825 20.4824ZM69.6436 20.529C69.6436 21.741 69.9084 22.8442 70.4381 23.8386C70.9679 24.802 71.6846 25.5789 72.5882 26.1693C73.4919 26.7287 74.5046 27.0084 75.6264 27.0084C76.7793 27.0084 77.8076 26.7287 78.7112 26.1693C79.6149 25.5789 80.316 24.802 80.8146 23.8386C81.3443 22.8442 81.6092 21.741 81.6092 20.529C81.6092 19.3171 81.3443 18.2294 80.8146 17.266C80.316 16.3027 79.6149 15.5258 78.7112 14.9353C77.8076 14.3449 76.7793 14.0496 75.6264 14.0496C74.4734 14.0496 73.4451 14.3449 72.5415 14.9353C71.6378 15.5258 70.9211 16.3182 70.3914 17.3126C69.8928 18.276 69.6436 19.3481 69.6436 20.529Z" fill="#2D2D2D"/>
<path d="M96.4636 10.9265L96.8842 15.4015L96.6973 14.7955C97.3516 13.397 98.3644 12.2783 99.7354 11.4393C101.106 10.5691 102.727 10.1341 104.596 10.1341C106.435 10.1341 107.946 10.6779 109.13 11.7656C110.346 12.8532 110.969 14.2672 111 16.0074V30.4578H106.186V17.6856C106.154 16.6911 105.858 15.8831 105.298 15.2616C104.737 14.609 103.864 14.2672 102.68 14.2361C101.621 14.2361 100.655 14.5624 99.7822 15.215C98.9097 15.8365 98.2241 16.6911 97.7256 17.7788C97.227 18.8664 96.9777 20.125 96.9777 21.5545V30.4578H92.1634V10.9265H96.4636Z" fill="#2D2D2D"/>
<path d="M17.8536 29.1329C10.6521 29.1329 4.80431 23.3364 4.72197 16.1543C4.72197 16.1493 4.72197 16.1441 4.72197 16.1391L4.72147 16.07C4.72147 16.0468 4.72147 16.0237 4.72147 16.0003C4.72147 15.9769 4.72147 15.9538 4.72147 15.9307L4.72197 15.8615C4.72197 15.8593 4.72197 15.8568 4.72197 15.8545C4.72197 15.8518 4.72197 15.8491 4.72197 15.8463C4.80455 8.66451 10.6524 2.8677 17.8536 2.8677C25.0548 2.8677 30.8944 8.65605 30.9855 15.8307C30.8947 7.35187 23.9932 0.506836 15.4932 0.506836C6.99328 0.506836 0 7.4434 0 16.0001C0 24.5567 6.93657 31.4933 15.4932 31.4933C24.0499 31.4933 30.8947 24.6483 30.9855 16.1697C30.8944 23.3446 25.0498 29.1327 17.8536 29.1327V29.1329Z" fill="url(#paint0_linear_191_1041)"/>
<path d="M30.9864 15.9001C30.9864 15.8767 30.9859 15.8538 30.9859 15.8304C30.8949 8.65578 25.0503 2.86743 17.854 2.86743C10.6578 2.86743 4.80475 8.66399 4.72217 15.8458C4.74605 14.1422 5.16568 12.534 5.89277 11.1094C7.71957 7.29016 11.6194 4.65194 16.1357 4.65194C22.3541 4.65194 27.4044 9.65351 27.483 15.8533C27.483 15.8734 27.4833 15.8933 27.4835 15.9135C27.4835 15.9423 27.4838 15.9712 27.4838 16C27.4838 16.0289 27.4838 16.0578 27.4835 16.0866C27.4835 16.1068 27.4833 16.1267 27.483 16.1468C27.4044 22.3466 22.3541 27.3482 16.1357 27.3482C11.6197 27.3482 7.71957 24.7099 5.89277 20.8907C5.16544 19.4658 4.74605 17.8579 4.72217 16.154C4.80475 23.3361 10.6526 29.1327 17.8538 29.1327C25.055 29.1327 30.8946 23.3443 30.9857 16.1694C30.9857 16.1461 30.9862 16.1232 30.9862 16.0998C30.9862 16.0665 30.9866 16.0331 30.9866 15.9995C30.9866 15.966 30.9867 15.9326 30.9862 15.8993L30.9864 15.9001Z" fill="url(#paint1_linear_191_1041)"/>
<path d="M16.1355 27.3483C22.3539 27.3483 27.4042 22.3467 27.4828 16.147C27.4828 16.1268 27.4831 16.1069 27.4833 16.0868C27.4833 16.0579 27.4836 16.0291 27.4836 16.0002C27.4836 15.9713 27.4836 15.9425 27.4833 15.9136C27.4833 15.8935 27.4831 15.8736 27.4828 15.8534C27.4042 9.65391 22.3539 4.6521 16.1355 4.6521C11.6195 4.6521 7.71963 7.29031 5.89258 11.1096C7.6746 7.61866 11.3046 5.22795 15.4932 5.22795C21.4425 5.22795 26.2655 10.0509 26.2655 16C26.2655 21.949 21.4425 26.7722 15.4932 26.7722C11.3046 26.7722 7.6746 24.3817 5.89258 20.8906C7.71938 24.7098 11.6192 27.3481 16.1355 27.3481V27.3483Z" fill="url(#paint2_linear_191_1041)"/>
<path opacity="0.21" d="M16.1355 27.3483C22.3539 27.3483 27.4042 22.3467 27.4828 16.147C27.4828 16.1268 27.4831 16.1069 27.4833 16.0868C27.4833 16.0579 27.4836 16.0291 27.4836 16.0002C27.4836 15.9713 27.4836 15.9425 27.4833 15.9136C27.4833 15.8935 27.4831 15.8736 27.4828 15.8534C27.4042 9.65391 22.3539 4.6521 16.1355 4.6521C11.6195 4.6521 7.71963 7.29031 5.89258 11.1096C7.6746 7.61866 11.3046 5.22795 15.4932 5.22795C21.4425 5.22795 26.2655 10.0509 26.2655 16C26.2655 21.949 21.4425 26.7722 15.4932 26.7722C11.3046 26.7722 7.6746 24.3817 5.89258 20.8906C7.71938 24.7098 11.6192 27.3481 16.1355 27.3481V27.3483Z" fill="url(#paint3_linear_191_1041)"/>
<defs>
<linearGradient id="paint0_linear_191_1041" x1="0" y1="16.0001" x2="30.9855" y2="16.0001" gradientUnits="userSpaceOnUse">
<stop stop-color="#FBD67A"/>
<stop offset="0.21" stop-color="#F5923D"/>
<stop offset="0.4" stop-color="#F35834"/>
<stop offset="0.56" stop-color="#DB0271"/>
<stop offset="0.71" stop-color="#AB0B9E"/>
<stop offset="0.85" stop-color="#6C1CCF"/>
<stop offset="0.99" stop-color="#383DED"/>
</linearGradient>
<linearGradient id="paint1_linear_191_1041" x1="6.47882" y1="22.5677" x2="29.2293" y2="9.43263" gradientUnits="userSpaceOnUse">
<stop offset="0.21" stop-color="#F5923D"/>
<stop offset="0.4" stop-color="#F35834"/>
<stop offset="0.56" stop-color="#DB0271"/>
<stop offset="0.71" stop-color="#AB0B9E"/>
<stop offset="0.85" stop-color="#6C1CCF"/>
<stop offset="0.99" stop-color="#383DED"/>
</linearGradient>
<linearGradient id="paint2_linear_191_1041" x1="6.04904" y1="21.8236" x2="28.7995" y2="8.68853" gradientUnits="userSpaceOnUse">
<stop offset="0.21" stop-color="#F5923D"/>
<stop offset="0.4" stop-color="#F35834"/>
<stop offset="0.56" stop-color="#DB0271"/>
<stop offset="0.71" stop-color="#AB0B9E"/>
<stop offset="0.85" stop-color="#6C1CCF"/>
<stop offset="0.99" stop-color="#383DED"/>
</linearGradient>
<linearGradient id="paint3_linear_191_1041" x1="4.78814" y1="16.0002" x2="27.4836" y2="16.0002" gradientUnits="userSpaceOnUse">
<stop stop-color="white"/>
<stop offset="1" stop-color="#231F20"/>
</linearGradient>
</defs>
</svg>
