<svg width="16" height="15" viewBox="0 0 16 15" fill="none" xmlns="http://www.w3.org/2000/svg">
<path d="M8 11.25V11.2575M8 8.62503C7.98619 8.38156 8.05187 8.1402 8.18714 7.93729C8.32241 7.73439 8.51995 7.58093 8.75 7.50003C9.0319 7.39223 9.28494 7.22046 9.48918 6.99825C9.69342 6.77604 9.84329 6.50945 9.92699 6.21947C10.0107 5.9295 10.0259 5.62405 9.97155 5.32718C9.91714 5.03031 9.79457 4.75012 9.61349 4.50867C9.4324 4.26722 9.19773 4.0711 8.92797 3.93575C8.65821 3.8004 8.36071 3.72951 8.05889 3.72868C7.75708 3.72784 7.45919 3.79707 7.18868 3.93092C6.91817 4.06477 6.68243 4.25959 6.5 4.50003M14.75 7.5C14.75 11.2279 11.7279 14.25 8 14.25C4.27208 14.25 1.25 11.2279 1.25 7.5C1.25 3.77208 4.27208 0.75 8 0.75C11.7279 0.75 14.75 3.77208 14.75 7.5Z" stroke="black" stroke-width="1.5" stroke-linecap="round" stroke-linejoin="round"/>
</svg>
