<svg width="32" height="11" viewBox="0 0 32 11" fill="none" xmlns="http://www.w3.org/2000/svg">
<path d="M5.216 10L2.892 6.01H1.352V10H0.0780001V0.242H3.228C3.96533 0.242 4.586 0.368 5.09 0.62C5.60333 0.872 5.986 1.21267 6.238 1.642C6.49 2.07133 6.616 2.56133 6.616 3.112C6.616 3.784 6.42 4.37667 6.028 4.89C5.64533 5.40333 5.06667 5.744 4.292 5.912L6.742 10H5.216ZM1.352 4.988H3.228C3.91867 4.988 4.43667 4.82 4.782 4.484C5.12733 4.13867 5.3 3.68133 5.3 3.112C5.3 2.53333 5.12733 2.08533 4.782 1.768C4.446 1.45067 3.928 1.292 3.228 1.292H1.352V4.988ZM11.6896 10.098C11.0456 10.098 10.4669 9.986 9.95358 9.762C9.44958 9.52867 9.05291 9.21133 8.76358 8.81C8.47424 8.39933 8.32491 7.928 8.31558 7.396H9.67358C9.72024 7.85333 9.90691 8.24067 10.2336 8.558C10.5696 8.866 11.0549 9.02 11.6896 9.02C12.2962 9.02 12.7722 8.87067 13.1176 8.572C13.4722 8.264 13.6496 7.872 13.6496 7.396C13.6496 7.02267 13.5469 6.71933 13.3416 6.486C13.1362 6.25267 12.8796 6.07533 12.5716 5.954C12.2636 5.83267 11.8482 5.702 11.3256 5.562C10.6816 5.394 10.1636 5.226 9.77158 5.058C9.38891 4.89 9.05758 4.62867 8.77758 4.274C8.50691 3.91 8.37158 3.42467 8.37158 2.818C8.37158 2.286 8.50691 1.81467 8.77758 1.404C9.04824 0.993333 9.42624 0.675999 9.91158 0.451999C10.4062 0.228 10.9709 0.116 11.6056 0.116C12.5202 0.116 13.2669 0.344666 13.8456 0.802C14.4336 1.25933 14.7649 1.866 14.8396 2.622H13.4396C13.3929 2.24867 13.1969 1.922 12.8516 1.642C12.5062 1.35267 12.0489 1.208 11.4796 1.208C10.9476 1.208 10.5136 1.348 10.1776 1.628C9.84158 1.89867 9.67358 2.28133 9.67358 2.776C9.67358 3.13067 9.77158 3.42 9.96758 3.644C10.1729 3.868 10.4202 4.04067 10.7096 4.162C11.0082 4.274 11.4236 4.40467 11.9556 4.554C12.5996 4.73133 13.1176 4.90867 13.5096 5.086C13.9016 5.254 14.2376 5.52 14.5176 5.884C14.7976 6.23867 14.9376 6.724 14.9376 7.34C14.9376 7.816 14.8116 8.264 14.5596 8.684C14.3076 9.104 13.9342 9.44467 13.4396 9.706C12.9449 9.96733 12.3616 10.098 11.6896 10.098ZM21.9504 10L19.6264 6.01H18.0864V10H16.8124V0.242H19.9624C20.6997 0.242 21.3204 0.368 21.8244 0.62C22.3377 0.872 22.7204 1.21267 22.9724 1.642C23.2244 2.07133 23.3504 2.56133 23.3504 3.112C23.3504 3.784 23.1544 4.37667 22.7624 4.89C22.3797 5.40333 21.801 5.744 21.0264 5.912L23.4764 10H21.9504ZM18.0864 4.988H19.9624C20.653 4.988 21.171 4.82 21.5164 4.484C21.8617 4.13867 22.0344 3.68133 22.0344 3.112C22.0344 2.53333 21.8617 2.08533 21.5164 1.768C21.1804 1.45067 20.6624 1.292 19.9624 1.292H18.0864V4.988ZM31.854 3.098C31.854 3.91 31.574 4.58667 31.014 5.128C30.4633 5.66 29.6186 5.926 28.48 5.926H26.604V10H25.33V0.242H28.48C29.5813 0.242 30.4166 0.508 30.986 1.04C31.5646 1.572 31.854 2.258 31.854 3.098ZM28.48 4.876C29.1893 4.876 29.712 4.722 30.048 4.414C30.384 4.106 30.552 3.66733 30.552 3.098C30.552 1.894 29.8613 1.292 28.48 1.292H26.604V4.876H28.48Z" fill="url(#paint0_linear_1_2288)"/>
<defs>
<linearGradient id="paint0_linear_1_2288" x1="-1" y1="5" x2="33" y2="5" gradientUnits="userSpaceOnUse">
<stop stop-color="#6345D5"/>
<stop offset="0.484375" stop-color="#FE8B00"/>
<stop offset="1" stop-color="#AB0B9E"/>
</linearGradient>
</defs>
</svg>
