<svg width="16" height="15" viewBox="0 0 16 15" fill="none" xmlns="http://www.w3.org/2000/svg">
<path d="M14.75 14.2501L10.25 9.75006M1.45096 7.53235C1.77868 8.5997 2.43737 9.53516 3.33178 10.2035C4.2262 10.8718 5.30999 11.2383 6.42646 11.2501C7.71794 11.266 8.97013 10.8062 9.94431 9.95812C10.9185 9.11009 11.5465 7.93322 11.7087 6.65185C11.8683 5.37049 11.55 4.07526 10.8148 3.01377C10.0795 1.95227 8.97887 1.19897 7.72321 0.897855C6.46727 0.594059 5.14347 0.762664 4.00377 1.37158C2.86408 1.9805 1.98806 2.98721 1.54246 4.2001M1.25 1.50006V4.50006H4.25" stroke="black" stroke-width="1.5" stroke-linecap="round" stroke-linejoin="round"/>
</svg>
