<svg width="14" height="14" viewBox="0 0 14 14" fill="none" xmlns="http://www.w3.org/2000/svg">
<path d="M12.6566 13.4328L7.94597 8.72218C7.57097 9.03179 7.13972 9.2741 6.65222 9.4491C6.16472 9.6241 5.6604 9.7116 5.13925 9.7116C3.85737 9.7116 2.77248 9.26776 1.88458 8.38009C0.996684 7.49241 0.552734 6.40781 0.552734 5.12627C0.552734 3.84472 0.996572 2.75971 1.88425 1.87125C2.77192 0.982799 3.85653 0.538574 5.13808 0.538574C6.41962 0.538574 7.50462 0.982525 8.39309 1.87043C9.28155 2.75833 9.72578 3.84321 9.72578 5.12509C9.72578 5.66066 9.63587 6.1722 9.45606 6.6597C9.27625 7.1472 9.03634 7.57124 8.73634 7.93181L13.4469 12.6424L12.6566 13.4328ZM5.13925 8.58664C6.1056 8.58664 6.92411 8.2513 7.59478 7.58063C8.26546 6.90995 8.6008 6.09144 8.6008 5.12509C8.6008 4.15874 8.26546 3.34022 7.59478 2.66955C6.92411 1.99888 6.1056 1.66354 5.13925 1.66354C4.1729 1.66354 3.35438 1.99888 2.68371 2.66955C2.01305 3.34022 1.67772 4.15874 1.67772 5.12509C1.67772 6.09144 2.01305 6.90995 2.68371 7.58063C3.35438 8.2513 4.1729 8.58664 5.13925 8.58664Z" fill="#848FAC"/>
</svg>
