<svg width="98" height="15" viewBox="0 0 98 15" fill="none" xmlns="http://www.w3.org/2000/svg">
<path d="M4.172 11.098C3.528 11.098 2.94933 10.986 2.436 10.762C1.932 10.5287 1.53533 10.2113 1.246 9.81C0.956667 9.39933 0.807333 8.928 0.798 8.396H2.156C2.20267 8.85333 2.38933 9.24067 2.716 9.558C3.052 9.866 3.53733 10.02 4.172 10.02C4.77867 10.02 5.25467 9.87067 5.6 9.572C5.95467 9.264 6.132 8.872 6.132 8.396C6.132 8.02267 6.02933 7.71933 5.824 7.486C5.61867 7.25267 5.362 7.07533 5.054 6.954C4.746 6.83267 4.33067 6.702 3.808 6.562C3.164 6.394 2.646 6.226 2.254 6.058C1.87133 5.89 1.54 5.62867 1.26 5.274C0.989333 4.91 0.854 4.42467 0.854 3.818C0.854 3.286 0.989333 2.81467 1.26 2.404C1.53067 1.99333 1.90867 1.676 2.394 1.452C2.88867 1.228 3.45333 1.116 4.088 1.116C5.00267 1.116 5.74933 1.34467 6.328 1.802C6.916 2.25933 7.24733 2.866 7.322 3.622H5.922C5.87533 3.24867 5.67933 2.922 5.334 2.642C4.98867 2.35267 4.53133 2.208 3.962 2.208C3.43 2.208 2.996 2.348 2.66 2.628C2.324 2.89867 2.156 3.28133 2.156 3.776C2.156 4.13067 2.254 4.42 2.45 4.644C2.65533 4.868 2.90267 5.04067 3.192 5.162C3.49067 5.274 3.906 5.40467 4.438 5.554C5.082 5.73133 5.6 5.90867 5.992 6.086C6.384 6.254 6.72 6.52 7 6.884C7.28 7.23867 7.42 7.724 7.42 8.34C7.42 8.816 7.294 9.264 7.042 9.684C6.79 10.104 6.41667 10.4447 5.922 10.706C5.42733 10.9673 4.844 11.098 4.172 11.098ZM16.2948 6.87C16.2948 7.11267 16.2808 7.36933 16.2528 7.64H10.1208C10.1675 8.396 10.4241 8.98867 10.8908 9.418C11.3668 9.838 11.9408 10.048 12.6128 10.048C13.1635 10.048 13.6208 9.922 13.9848 9.67C14.3581 9.40867 14.6195 9.06333 14.7688 8.634H16.1408C15.9355 9.37133 15.5248 9.97333 14.9088 10.44C14.2928 10.8973 13.5275 11.126 12.6128 11.126C11.8848 11.126 11.2315 10.9627 10.6528 10.636C10.0835 10.3093 9.63546 9.84733 9.3088 9.25C8.98213 8.64333 8.8188 7.94333 8.8188 7.15C8.8188 6.35667 8.97746 5.66133 9.2948 5.064C9.61213 4.46667 10.0555 4.00933 10.6248 3.692C11.2035 3.36533 11.8661 3.202 12.6128 3.202C13.3408 3.202 13.9848 3.36067 14.5448 3.678C15.1048 3.99533 15.5341 4.434 15.8328 4.994C16.1408 5.54467 16.2948 6.17 16.2948 6.87ZM14.9788 6.604C14.9788 6.11867 14.8715 5.70333 14.6568 5.358C14.4421 5.00333 14.1481 4.73733 13.7748 4.56C13.4108 4.37333 13.0048 4.28 12.5568 4.28C11.9128 4.28 11.3621 4.48533 10.9048 4.896C10.4568 5.30667 10.2001 5.876 10.1348 6.604H14.9788ZM19.2504 4.574C19.4744 4.13533 19.7918 3.79467 20.2024 3.552C20.6224 3.30933 21.1311 3.188 21.7284 3.188V4.504H21.3924C19.9644 4.504 19.2504 5.27867 19.2504 6.828V11H17.9764V3.328H19.2504V4.574ZM26.0551 9.824L28.4351 3.328H29.7931L26.7831 11H25.2991L22.2891 3.328H23.6611L26.0551 9.824ZM31.7048 2.082C31.4621 2.082 31.2568 1.998 31.0888 1.83C30.9208 1.662 30.8368 1.45667 30.8368 1.214C30.8368 0.971333 30.9208 0.766 31.0888 0.598C31.2568 0.43 31.4621 0.345999 31.7048 0.345999C31.9381 0.345999 32.1341 0.43 32.2928 0.598C32.4608 0.766 32.5448 0.971333 32.5448 1.214C32.5448 1.45667 32.4608 1.662 32.2928 1.83C32.1341 1.998 31.9381 2.082 31.7048 2.082ZM32.3208 3.328V11H31.0468V3.328H32.3208ZM38.2301 3.188C39.1634 3.188 39.9194 3.47267 40.4981 4.042C41.0767 4.602 41.3661 5.414 41.3661 6.478V11H40.1061V6.66C40.1061 5.89467 39.9147 5.31133 39.5321 4.91C39.1494 4.49933 38.6267 4.294 37.9641 4.294C37.2921 4.294 36.7554 4.504 36.3541 4.924C35.9621 5.344 35.7661 5.95533 35.7661 6.758V11H34.4921V3.328H35.7661V4.42C36.0181 4.028 36.3587 3.72467 36.7881 3.51C37.2267 3.29533 37.7074 3.188 38.2301 3.188ZM46.6111 3.202C47.2738 3.202 47.8525 3.34667 48.3471 3.636C48.8511 3.92533 49.2245 4.28933 49.4671 4.728V3.328H50.7551V11.168C50.7551 11.868 50.6058 12.4887 50.3071 13.03C50.0085 13.5807 49.5791 14.01 49.0191 14.318C48.4685 14.626 47.8245 14.78 47.0871 14.78C46.0791 14.78 45.2391 14.542 44.5671 14.066C43.8951 13.59 43.4985 12.9413 43.3771 12.12H44.6371C44.7771 12.5867 45.0665 12.96 45.5051 13.24C45.9438 13.5293 46.4711 13.674 47.0871 13.674C47.7871 13.674 48.3565 13.4547 48.7951 13.016C49.2431 12.5773 49.4671 11.9613 49.4671 11.168V9.558C49.2151 10.006 48.8418 10.3793 48.3471 10.678C47.8525 10.9767 47.2738 11.126 46.6111 11.126C45.9298 11.126 45.3091 10.958 44.7491 10.622C44.1985 10.286 43.7645 9.81467 43.4471 9.208C43.1298 8.60133 42.9711 7.91067 42.9711 7.136C42.9711 6.352 43.1298 5.666 43.4471 5.078C43.7645 4.48067 44.1985 4.01867 44.7491 3.692C45.3091 3.36533 45.9298 3.202 46.6111 3.202ZM49.4671 7.15C49.4671 6.57133 49.3505 6.06733 49.1171 5.638C48.8838 5.20867 48.5665 4.882 48.1651 4.658C47.7731 4.42467 47.3391 4.308 46.8631 4.308C46.3871 4.308 45.9531 4.42 45.5611 4.644C45.1691 4.868 44.8565 5.19467 44.6231 5.624C44.3898 6.05333 44.2731 6.55733 44.2731 7.136C44.2731 7.724 44.3898 8.23733 44.6231 8.676C44.8565 9.10533 45.1691 9.43667 45.5611 9.67C45.9531 9.894 46.3871 10.006 46.8631 10.006C47.3391 10.006 47.7731 9.894 48.1651 9.67C48.5665 9.43667 48.8838 9.10533 49.1171 8.676C49.3505 8.23733 49.4671 7.72867 49.4671 7.15ZM61.5265 5.974C61.8812 6.03 62.2032 6.17467 62.4925 6.408C62.7912 6.64133 63.0245 6.93067 63.1925 7.276C63.3698 7.62133 63.4585 7.99 63.4585 8.382C63.4585 8.87667 63.3325 9.32467 63.0805 9.726C62.8285 10.118 62.4598 10.4307 61.9745 10.664C61.4985 10.888 60.9338 11 60.2805 11H56.6405V1.242H60.1405C60.8032 1.242 61.3678 1.354 61.8345 1.578C62.3012 1.79267 62.6512 2.08667 62.8845 2.46C63.1178 2.83333 63.2345 3.25333 63.2345 3.72C63.2345 4.29867 63.0758 4.77933 62.7585 5.162C62.4505 5.53533 62.0398 5.806 61.5265 5.974ZM57.9145 5.456H60.0565C60.6538 5.456 61.1158 5.316 61.4425 5.036C61.7692 4.756 61.9325 4.36867 61.9325 3.874C61.9325 3.37933 61.7692 2.992 61.4425 2.712C61.1158 2.432 60.6445 2.292 60.0285 2.292H57.9145V5.456ZM60.1685 9.95C60.8032 9.95 61.2978 9.80067 61.6525 9.502C62.0072 9.20333 62.1845 8.788 62.1845 8.256C62.1845 7.71467 61.9978 7.29 61.6245 6.982C61.2512 6.66467 60.7518 6.506 60.1265 6.506H57.9145V9.95H60.1685ZM70.3644 11L68.0404 7.01H66.5004V11H65.2264V1.242H68.3764C69.1138 1.242 69.7344 1.368 70.2384 1.62C70.7518 1.872 71.1344 2.21267 71.3864 2.642C71.6384 3.07133 71.7644 3.56133 71.7644 4.112C71.7644 4.784 71.5684 5.37667 71.1764 5.89C70.7938 6.40333 70.2151 6.744 69.4404 6.912L71.8904 11H70.3644ZM66.5004 5.988H68.3764C69.0671 5.988 69.5851 5.82 69.9304 5.484C70.2758 5.13867 70.4484 4.68133 70.4484 4.112C70.4484 3.53333 70.2758 3.08533 69.9304 2.768C69.5944 2.45067 69.0764 2.292 68.3764 2.292H66.5004V5.988ZM76.838 11.098C76.194 11.098 75.6153 10.986 75.102 10.762C74.598 10.5287 74.2013 10.2113 73.912 9.81C73.6227 9.39933 73.4733 8.928 73.464 8.396H74.822C74.8687 8.85333 75.0553 9.24067 75.382 9.558C75.718 9.866 76.2033 10.02 76.838 10.02C77.4447 10.02 77.9207 9.87067 78.266 9.572C78.6207 9.264 78.798 8.872 78.798 8.396C78.798 8.02267 78.6953 7.71933 78.49 7.486C78.2847 7.25267 78.028 7.07533 77.72 6.954C77.412 6.83267 76.9967 6.702 76.474 6.562C75.83 6.394 75.312 6.226 74.92 6.058C74.5373 5.89 74.206 5.62867 73.926 5.274C73.6553 4.91 73.52 4.42467 73.52 3.818C73.52 3.286 73.6553 2.81467 73.926 2.404C74.1967 1.99333 74.5747 1.676 75.06 1.452C75.5547 1.228 76.1193 1.116 76.754 1.116C77.6687 1.116 78.4153 1.34467 78.994 1.802C79.582 2.25933 79.9133 2.866 79.988 3.622H78.588C78.5413 3.24867 78.3453 2.922 78 2.642C77.6547 2.35267 77.1973 2.208 76.628 2.208C76.096 2.208 75.662 2.348 75.326 2.628C74.99 2.89867 74.822 3.28133 74.822 3.776C74.822 4.13067 74.92 4.42 75.116 4.644C75.3213 4.868 75.5687 5.04067 75.858 5.162C76.1567 5.274 76.572 5.40467 77.104 5.554C77.748 5.73133 78.266 5.90867 78.658 6.086C79.05 6.254 79.386 6.52 79.666 6.884C79.946 7.23867 80.086 7.724 80.086 8.34C80.086 8.816 79.96 9.264 79.708 9.684C79.456 10.104 79.0827 10.4447 78.588 10.706C78.0933 10.9673 77.51 11.098 76.838 11.098ZM87.0988 11L84.7748 7.01H83.2348V11H81.9608V1.242H85.1108C85.8481 1.242 86.4688 1.368 86.9728 1.62C87.4861 1.872 87.8688 2.21267 88.1208 2.642C88.3728 3.07133 88.4988 3.56133 88.4988 4.112C88.4988 4.784 88.3028 5.37667 87.9108 5.89C87.5281 6.40333 86.9495 6.744 86.1748 6.912L88.6248 11H87.0988ZM83.2348 5.988H85.1108C85.8015 5.988 86.3195 5.82 86.6648 5.484C87.0101 5.13867 87.1828 4.68133 87.1828 4.112C87.1828 3.53333 87.0101 3.08533 86.6648 2.768C86.3288 2.45067 85.8108 2.292 85.1108 2.292H83.2348V5.988ZM97.0024 4.098C97.0024 4.91 96.7224 5.58667 96.1624 6.128C95.6117 6.66 94.7671 6.926 93.6284 6.926H91.7524V11H90.4784V1.242H93.6284C94.7297 1.242 95.5651 1.508 96.1344 2.04C96.7131 2.572 97.0024 3.258 97.0024 4.098ZM93.6284 5.876C94.3377 5.876 94.8604 5.722 95.1964 5.414C95.5324 5.106 95.7004 4.66733 95.7004 4.098C95.7004 2.894 95.0097 2.292 93.6284 2.292H91.7524V5.876H93.6284Z" fill="url(#paint0_linear_1_2292)"/>
<defs>
<linearGradient id="paint0_linear_1_2292" x1="-7.30157e-07" y1="6" x2="98" y2="6" gradientUnits="userSpaceOnUse">
<stop stop-color="#6345D5"/>
<stop offset="0.484375" stop-color="#FE8B00"/>
<stop offset="1" stop-color="#AB0B9E"/>
</linearGradient>
</defs>
</svg>
