<svg width="16" height="12" viewBox="0 0 16 12" fill="none" xmlns="http://www.w3.org/2000/svg">
<path d="M11.7069 7.73076C11.2396 7.73076 10.8415 7.56634 10.5127 7.23749C10.1838 6.90865 10.0194 6.51058 10.0194 6.04326C10.0194 5.57596 10.1838 5.17789 10.5127 4.84906C10.8415 4.52021 11.2396 4.35578 11.7069 4.35578C12.1742 4.35578 12.5723 4.52021 12.9011 4.84906C13.2299 5.17789 13.3944 5.57596 13.3944 6.04326C13.3944 6.51058 13.2299 6.90865 12.9011 7.23749C12.5723 7.56634 12.1742 7.73076 11.7069 7.73076ZM8.14441 11.4808V10.6183C8.14441 10.3519 8.21251 10.1074 8.34873 9.88465C8.48495 9.66191 8.67838 9.50165 8.92902 9.40386C9.36523 9.22116 9.81659 9.08414 10.2831 8.99281C10.7496 8.90146 11.2242 8.85578 11.7069 8.85578C12.1798 8.85578 12.6498 8.90146 13.1166 8.99281C13.5835 9.08414 14.0396 9.22116 14.4848 9.40386C14.7354 9.50165 14.9288 9.66191 15.0651 9.88465C15.2013 10.1074 15.2694 10.3519 15.2694 10.6183V11.4808H8.14441ZM6.35592 5.76923C5.63406 5.76923 5.0161 5.51221 4.50203 4.99816C3.98798 4.48409 3.73096 3.86613 3.73096 3.14427C3.73096 2.42239 3.98798 1.80443 4.50203 1.29038C5.0161 0.776318 5.63406 0.519287 6.35592 0.519287C7.0778 0.519287 7.69576 0.776318 8.20981 1.29038C8.72387 1.80443 8.9809 2.42239 8.9809 3.14427C8.9809 3.86613 8.72387 4.48409 8.20981 4.99816C7.69576 5.51221 7.0778 5.76923 6.35592 5.76923ZM0.730957 11.4808V9.81348C0.730957 9.43878 0.828788 9.09438 1.02445 8.78029C1.22013 8.46621 1.48864 8.22984 1.82999 8.07119C2.53671 7.71543 3.27026 7.44476 4.03062 7.25918C4.79098 7.07361 5.56608 6.98082 6.35592 6.98082C6.72611 6.98082 7.09629 7.0075 7.46648 7.06086C7.83667 7.11423 8.20686 7.17889 8.57704 7.25485L8.09821 7.74089L7.61937 8.22694C7.4088 8.17646 7.19822 8.14364 6.98764 8.12851C6.77707 8.11336 6.56649 8.10578 6.35592 8.10578C5.65496 8.10578 4.96602 8.18607 4.28911 8.34664C3.61218 8.50722 2.96458 8.75001 2.34631 9.07501C2.20208 9.15193 2.08429 9.25266 1.99294 9.37718C1.90159 9.50169 1.85592 9.64713 1.85592 9.81348V10.3558H6.35592V11.4808H0.730957ZM6.35592 4.64427C6.76842 4.64427 7.12155 4.49739 7.4153 4.20364C7.70904 3.90989 7.85592 3.55677 7.85592 3.14427C7.85592 2.73177 7.70904 2.37864 7.4153 2.08489C7.12155 1.79114 6.76842 1.64427 6.35592 1.64427C5.94342 1.64427 5.59029 1.79114 5.29655 2.08489C5.0028 2.37864 4.85592 2.73177 4.85592 3.14427C4.85592 3.55677 5.0028 3.90989 5.29655 4.20364C5.59029 4.49739 5.94342 4.64427 6.35592 4.64427Z" fill="black"/>
</svg>
